<svg id="Layer_1" data-name="Layer 1" xmlns="http://www.w3.org/2000/svg" viewBox="0 0 700 670"><defs><style>.cls-1,.cls-4{fill:none;}.cls-1,.cls-2{stroke:#000;stroke-miterlimit:10;}.cls-1{stroke-width:4px;}.cls-3{font-size:25.3px;font-family:ArialMT, Arial;}</style></defs><title>Flower Flow Logo4</title><polyline class="cls-1" points="120.79 437.42 70.56 437.42 70.56 255.5 644.17 255.5 644.17 443.97 600.42 443.97"/><polygon class="cls-2" points="127.5 288 184 288 184 299.5 141 299.5 140.5 327.5 184 327.5 184 339.5 140.5 339.5 140.5 391 127.5 391 127.5 288"/><polygon class="cls-2" points="230.5 288 241 288 241 377 275 377 275 391 230.5 391 230.5 288"/><path d="M324.5,339.5s-.5-33.5,18.5-39c0,0,31-2.5,36.5,23.5,0,0,0-30.5-34.5-36,0,0-30-2.5-36,14.5S319.5,342.5,324.5,339.5Z"/><path d="M371.5,288s17.5,2.5,18,40.5c0,0-10.28,20-32.14,18,0,0-13.36-2-19.86-7,0,0-.5,16.5,12.5,32.5,0,0,41.5-35.5,45-46.5,0,0,5.5-18-5.5-31C389.5,294.5,383,289.5,371.5,288Z"/><path class="cls-2" d="M357.36,337.5c7.67,1.27,9.58-2.5,9.58-2.5s4.06-8,0-5S350,335,350,335s-10-7.5,2.5-9.5S363,317,363,317c-8-14-25.5,0-25.5,0s-3.3,10,6.1,15.5a41.58,41.58,0,0,1,4.4,3.21,9.52,9.52,0,0,0,1.77.68,6.9,6.9,0,0,0,1.24.16C352.6,336.7,355.24,337.15,357.36,337.5Z"/><path class="cls-2" d="M357.36,394s2.14-21,24.14-40.5c0,0,17.5-10.36,24-39.68,0,0,6.75,36.18-9.12,52.68S376.72,385.5,357.36,394Z"/><path class="cls-2" d="M297.5,317s1,18.5,22,36.5c0,0,23.7,12.5,24.1,40.5,0,0-24.6-12-41.1-33C302.5,361,292,339.5,297.5,317Z"/><polygon class="cls-2" points="426.5 288 441 288 471 363 505.5 284 538.5 363 570 288 583 288 539.5 394 536.5 394 506.5 317 473 394 470 394 426.5 288"/><path d="M127.21,427.85H142v2.53H127.21Zm5.91,1.55h2.93v17.42h-2.93Z"/><path d="M203.43,428.86h3.32v18h-3.32Zm1.61,0h13.6v2.39H205Zm0,7.84h11.81v2.4H205Zm0,7.72h13.6v2.4H205Z"/><path d="M227.73,434h2.21v12.82h-2.21Zm6.72,5.05a3.3,3.3,0,0,0-.59-2.1,2,2,0,0,0-1.65-.74,2.17,2.17,0,0,0-1.68.65,2.68,2.68,0,0,0-.59,1.84l-.23-2.47a4.51,4.51,0,0,1,1.36-1.79,3,3,0,0,1,1.86-.63,3.38,3.38,0,0,1,2,.61,3.84,3.84,0,0,1,1.27,1.79,8.13,8.13,0,0,1,.44,2.83v7.78h-2.21Zm6.71,0a3.19,3.19,0,0,0-.61-2.1,2.16,2.16,0,0,0-1.74-.74,1.93,1.93,0,0,0-1.59.71,3.27,3.27,0,0,0-.56,2l-.45-2.47a4.79,4.79,0,0,1,1.41-2,3,3,0,0,1,1.92-.7,3.52,3.52,0,0,1,2.07.61,3.77,3.77,0,0,1,1.31,1.79,7.89,7.89,0,0,1,.45,2.83v7.78h-2.21Z"/><path d="M259.73,434h2.21v18h-2.21Zm3.21,12.43a3.32,3.32,0,0,1-1.15-1.62l.15-2.68a3.43,3.43,0,0,0,.26,1.4,2,2,0,0,0,.75.89,2.19,2.19,0,0,0,1.2.31,2,2,0,0,0,1.7-.76,3.37,3.37,0,0,0,.6-2.14v-2.78a3.52,3.52,0,0,0-.6-2.19,2,2,0,0,0-1.7-.78,2.27,2.27,0,0,0-1.2.3,2,2,0,0,0-.75.87,3.36,3.36,0,0,0-.26,1.38l-.23-2.47a4.36,4.36,0,0,1,1.34-1.74,3,3,0,0,1,1.83-.61,3.47,3.47,0,0,1,2,.61,3.73,3.73,0,0,1,1.29,1.79,7.89,7.89,0,0,1,.45,2.83v2.79a7.48,7.48,0,0,1-.46,2.79,3.63,3.63,0,0,1-1.33,1.77,3.57,3.57,0,0,1-2.1.62A3,3,0,0,1,262.94,446.43Z"/><path d="M286.73,428.86h2.21v2.52h-2.21Zm0,5.14h2.21v12.82h-2.21Z"/><path d="M305.23,434h2.21v12.82h-2.21Zm5.45,2.42a2.4,2.4,0,0,0-1-.21,2.06,2.06,0,0,0-1.63.66,2.66,2.66,0,0,0-.58,1.83l-.23-2.47a4.62,4.62,0,0,1,1.35-1.78,2.87,2.87,0,0,1,1.82-.64,3.86,3.86,0,0,1,1.39.25,3.13,3.13,0,0,1,1.09.75L311.42,437A1.84,1.84,0,0,0,310.68,436.42Z"/><path d="M330.78,447l-1.11-.67a4.21,4.21,0,0,1-1.68-2,7.52,7.52,0,0,1-.58-3.12v-1.44a8.5,8.5,0,0,1,.55-3.25,4.24,4.24,0,0,1,4.18-2.76,3.76,3.76,0,0,1,2.41.8,5,5,0,0,1,1.52,2.33,11.2,11.2,0,0,1,.52,3.64v.84H329v-2h5.48a4.65,4.65,0,0,0-.71-2.44,1.91,1.91,0,0,0-1.64-.88,2.26,2.26,0,0,0-1.94.94,4.45,4.45,0,0,0-.69,2.66v1.63a3.61,3.61,0,0,0,.74,2.45,2.59,2.59,0,0,0,2.09.85,3.08,3.08,0,0,0,1.33-.31,3.93,3.93,0,0,0,1.18-.86l1.45,1.65a6.11,6.11,0,0,1-1.87,1.41,4.73,4.73,0,0,1-2.09.51Z"/><path d="M370.48,446.35a4.19,4.19,0,0,1-1.59-1.91,7.58,7.58,0,0,1-.55-3v-2.09a7.44,7.44,0,0,1,.55-3,4.14,4.14,0,0,1,1.59-1.89,5.13,5.13,0,0,1,5,0,4,4,0,0,1,1.59,1.89,7.44,7.44,0,0,1,.55,3v2.13a7.43,7.43,0,0,1-.55,3,4.1,4.1,0,0,1-1.59,1.9,5.06,5.06,0,0,1-5,0Zm4.29-2.57a3.68,3.68,0,0,0,.64-2.32v-2.13a3.67,3.67,0,0,0-.64-2.31,2.38,2.38,0,0,0-3.58,0,3.73,3.73,0,0,0-.64,2.31v2.13a3.74,3.74,0,0,0,.64,2.32,2.35,2.35,0,0,0,3.58,0Z"/><path d="M394.87,434h5.62v2.15h-5.62Zm1.19-1.75a4.06,4.06,0,0,1,.68-2.55,2.59,2.59,0,0,1,2.12-.84h1.63v2.39h-1.58a.52.52,0,0,0-.48.28,1.32,1.32,0,0,0-.16.7v14.59h-2.21Z"/><path d="M432.43,428.86h3.32v18h-3.32Zm1.63,0h13.27v2.39H434.06Zm0,8h11.48v2.4H434.06Z"/><path d="M529.78,447l-1.11-.67a4.21,4.21,0,0,1-1.68-2,7.52,7.52,0,0,1-.58-3.12v-1.44a8.5,8.5,0,0,1,.55-3.25,4.24,4.24,0,0,1,4.18-2.76,3.72,3.72,0,0,1,2.4.8,5,5,0,0,1,1.53,2.33,11.2,11.2,0,0,1,.52,3.64v.84H528v-2h5.48a4.65,4.65,0,0,0-.71-2.44,1.91,1.91,0,0,0-1.64-.88,2.26,2.26,0,0,0-1.94.94,4.45,4.45,0,0,0-.69,2.66v1.63a3.61,3.61,0,0,0,.74,2.45,2.59,2.59,0,0,0,2.09.85,3.08,3.08,0,0,0,1.33-.31,3.93,3.93,0,0,0,1.18-.86l1.45,1.65a6.11,6.11,0,0,1-1.87,1.41,4.73,4.73,0,0,1-2.09.51Z"/><path d="M477.48,446.35a4.19,4.19,0,0,1-1.59-1.91,7.58,7.58,0,0,1-.55-3v-2.09a7.44,7.44,0,0,1,.55-3,4.14,4.14,0,0,1,1.59-1.89,5.13,5.13,0,0,1,5,0,4,4,0,0,1,1.59,1.89,7.44,7.44,0,0,1,.55,3v2.13a7.43,7.43,0,0,1-.55,3,4.1,4.1,0,0,1-1.59,1.9,5.06,5.06,0,0,1-5,0Zm4.29-2.57a3.68,3.68,0,0,0,.64-2.32v-2.13a3.67,3.67,0,0,0-.64-2.31,2.38,2.38,0,0,0-3.58,0,3.73,3.73,0,0,0-.64,2.31v2.13a3.74,3.74,0,0,0,.64,2.32,2.35,2.35,0,0,0,3.58,0Z"/><path d="M553.73,434h2.21v12.82h-2.21Zm5.45,2.42a2.4,2.4,0,0,0-1-.21,2.06,2.06,0,0,0-1.63.66,2.66,2.66,0,0,0-.58,1.83l-.23-2.47a4.62,4.62,0,0,1,1.35-1.78,2.87,2.87,0,0,1,1.82-.64,3.86,3.86,0,0,1,1.39.25,3.13,3.13,0,0,1,1.09.75L559.92,437A1.84,1.84,0,0,0,559.18,436.42Z"/><path d="M497.76,434h2.3l2,9.15,2.8-9.15h1.54l2.81,9.15,2-9.15h2.31L510,446.82h-1.67L505.63,438l-2.74,8.86h-1.67Z"/><path d="M579.46,447l-.87-.23a6.14,6.14,0,0,1-3-1.78l1.31-1.84a7.13,7.13,0,0,0,1.81,1.19,4.46,4.46,0,0,0,1.78.4,3.37,3.37,0,0,0,2-.47,1.58,1.58,0,0,0,.66-1.39,1.17,1.17,0,0,0-.36-.93,1.93,1.93,0,0,0-.89-.41c-.35-.07-.85-.13-1.49-.19h-.18l-.19,0h-.17A7.3,7.3,0,0,1,578,441a2.56,2.56,0,0,1-1.27-1,3.67,3.67,0,0,1-.5-2.08,4.64,4.64,0,0,1,.49-2.26,3,3,0,0,1,1.45-1.36,5.7,5.7,0,0,1,2.41-.45,7,7,0,0,1,1.68.19,6.28,6.28,0,0,1,1.52.55,7.5,7.5,0,0,1,1.4.92l-1.34,1.84a7.14,7.14,0,0,0-1.66-.93,4.63,4.63,0,0,0-1.6-.31,2.75,2.75,0,0,0-1.69.44,1.58,1.58,0,0,0-.56,1.32.94.94,0,0,0,.32.77,1.67,1.67,0,0,0,.81.35,12.83,12.83,0,0,0,1.38.15h.35l.07,0a8.18,8.18,0,0,1,2,.35,2.76,2.76,0,0,1,1.4,1.08,4.05,4.05,0,0,1,.56,2.32,4.51,4.51,0,0,1-.52,2.29,3.26,3.26,0,0,1-1.57,1.37,6.61,6.61,0,0,1-2.62.46Z"/><text class="cls-3" transform="translate(455 446.82) scale(0.88 1)">l</text><path d="M146.8,427.85h2.93v19H146.8Zm9,10.76a2.9,2.9,0,0,0-.82-2.21,3.14,3.14,0,0,0-2.29-.79,3.29,3.29,0,0,0-2.22.68,2.38,2.38,0,0,0-.79,1.92l-.3-2.61a5,5,0,0,1,1.8-1.86,4.78,4.78,0,0,1,2.47-.66,4.87,4.87,0,0,1,3.76,1.44,5.82,5.82,0,0,1,1.33,4.08v8.22h-2.94Z"/><path d="M167.28,447l-1.47-.71a5,5,0,0,1-2.23-2.07,6.62,6.62,0,0,1-.77-3.29v-1.53a7.39,7.39,0,0,1,.74-3.43,4.93,4.93,0,0,1,2.15-2.16,7.13,7.13,0,0,1,3.39-.75,5.76,5.76,0,0,1,3.19.85,5.41,5.41,0,0,1,2,2.45,9.73,9.73,0,0,1,.7,3.85v.89H164.94V439h7.27a4.36,4.36,0,0,0-.94-2.58,2.79,2.79,0,0,0-2.18-.92,3.34,3.34,0,0,0-2.58,1,4,4,0,0,0-.91,2.81V441a3.33,3.33,0,0,0,1,2.58,4,4,0,0,0,2.78.91,5,5,0,0,0,1.77-.33,5.28,5.28,0,0,0,1.56-.91l1.93,1.74a8.12,8.12,0,0,1-2.49,1.5,7.73,7.73,0,0,1-2.77.53Z"/><rect class="cls-4" width="700" height="670"/></svg>